<svg width="100" height="100" viewBox="0 0 100 100" fill="none" xmlns="http://www.w3.org/2000/svg">
<path d="M72.0547 37.5C74.8565 36.056 77.0919 33.7125 78.4022 30.8458C79.7125 27.979 80.0217 24.7551 79.2801 21.6916C78.5386 18.628 76.7893 15.9024 74.313 13.9522C71.8367 12.0021 68.777 10.9403 65.625 10.9375H37.5C34.348 10.9403 31.2883 12.0021 28.812 13.9522C26.3357 15.9024 24.5864 18.628 23.8449 21.6916C23.1033 24.7551 23.4125 27.979 24.7228 30.8458C26.0331 33.7125 28.2685 36.056 31.0703 37.5C28.7234 38.7093 26.7644 40.5548 25.4173 42.8254C24.0702 45.096 23.3895 47.6999 23.453 50.3393C23.5166 52.9786 24.3219 55.5468 25.7768 57.7499C27.2316 59.953 29.2773 61.702 31.6797 62.7969C29.2438 64.1028 27.198 66.0314 25.7508 68.3861C24.3036 70.7407 23.5068 73.4371 23.4418 76.2002C23.3768 78.9632 24.0459 81.6941 25.3807 84.1142C26.7156 86.5343 28.6685 88.557 31.0402 89.976C33.412 91.395 36.1177 92.1596 38.8813 92.1916C41.645 92.2237 44.3677 91.5221 46.7717 90.1585C49.1757 88.7948 51.175 86.8179 52.5656 84.4294C53.9562 82.0409 54.6884 79.3263 54.6875 76.5625V58.8242C55.9999 60.4593 57.6614 61.7801 59.5502 62.6902C61.4391 63.6002 63.5075 64.0764 65.6041 64.0838C67.7007 64.0912 69.7725 63.6298 71.6677 62.7331C73.563 61.8365 75.2337 60.5275 76.5578 58.9018C77.8818 57.2761 78.8255 55.3749 79.3199 53.3374C79.8143 51.2999 79.8469 49.1776 79.4152 47.1259C78.9835 45.0742 78.0985 43.145 76.8249 41.4795C75.5514 39.814 73.9216 38.4543 72.0547 37.5ZM76.5625 25C76.5625 27.9008 75.4102 30.6828 73.359 32.734C71.3078 34.7852 68.5258 35.9375 65.625 35.9375H54.6875V14.0625H65.625C68.5258 14.0625 71.3078 15.2148 73.359 17.266C75.4102 19.3172 76.5625 22.0992 76.5625 25ZM54.6875 39.0625H56.8008C56.0241 39.6907 55.3157 40.3991 54.6875 41.1758V39.0625ZM26.5625 25C26.5625 22.0992 27.7148 19.3172 29.766 17.266C31.8172 15.2148 34.5992 14.0625 37.5 14.0625H51.5625V35.9375H37.5C34.5992 35.9375 31.8172 34.7852 29.766 32.734C27.7148 30.6828 26.5625 27.9008 26.5625 25ZM51.5625 76.5625C51.5625 79.0348 50.8294 81.4515 49.4559 83.5071C48.0824 85.5627 46.1301 87.1649 43.846 88.111C41.562 89.0571 39.0486 89.3046 36.6239 88.8223C34.1991 88.34 31.9718 87.1495 30.2237 85.4013C28.4755 83.6532 27.285 81.4259 26.8027 79.0011C26.3204 76.5764 26.5679 74.063 27.514 71.779C28.4601 69.4949 30.0623 67.5426 32.1179 66.1691C34.1735 64.7956 36.5902 64.0625 39.0625 64.0625H51.5625V76.5625ZM51.5625 60.9375H37.5C34.5992 60.9375 31.8172 59.7852 29.766 57.734C27.7148 55.6828 26.5625 52.9008 26.5625 50C26.5625 47.0992 27.7148 44.3172 29.766 42.266C31.8172 40.2148 34.5992 39.0625 37.5 39.0625H51.5625V60.9375ZM65.625 60.9375C63.4618 60.9375 61.3471 60.296 59.5484 59.0942C57.7498 57.8924 56.3479 56.1842 55.5201 54.1856C54.6922 52.187 54.4756 49.9879 54.8977 47.8662C55.3197 45.7445 56.3614 43.7957 57.891 42.266C59.4207 40.7364 61.3695 39.6947 63.4912 39.2727C65.6129 38.8506 67.812 39.0672 69.8106 39.8951C71.8092 40.7229 73.5174 42.1248 74.7192 43.9234C75.921 45.7221 76.5625 47.8368 76.5625 50C76.5625 52.9008 75.4102 55.6828 73.359 57.734C71.3078 59.7852 68.5258 60.9375 65.625 60.9375Z" fill="#225E84"/>
</svg>
