<svg width="100" height="100" viewBox="0 0 100 100" fill="none" xmlns="http://www.w3.org/2000/svg">
<g clip-path="url(#clip0_977_1037)">
<path d="M97.4505 45.608L54.3912 2.5502C51.9131 0.0705079 47.8912 0.0705079 45.4091 2.5502L36.4685 11.4924L47.8107 22.8346C50.4474 21.9447 53.4693 22.5416 55.5701 24.6424C57.6818 26.7564 58.274 29.8041 57.3623 32.4494L68.2935 43.3814C70.938 42.4697 73.9904 43.0588 76.1013 45.1744C79.0545 48.1252 79.0545 52.9088 76.1013 55.8611C75.3996 56.5633 74.5663 57.1202 73.6492 57.5002C72.7321 57.8802 71.7491 58.0758 70.7564 58.0758C69.7637 58.0758 68.7807 57.8802 67.8636 57.5002C66.9465 57.1202 66.1133 56.5633 65.4115 55.8611C64.3574 54.8059 63.6388 53.4626 63.3462 52.0001C63.0536 50.5375 63.2 49.0211 63.767 47.6416L53.5732 37.4479L53.5716 64.2768C54.3113 64.6409 54.9866 65.1233 55.5709 65.7049C58.5224 68.6557 58.5224 73.4377 55.5709 76.3947C52.6185 79.3455 47.8334 79.3455 44.8841 76.3947C41.9326 73.4385 41.9326 68.6564 44.8841 65.7049C45.5919 64.9974 46.4329 64.4372 47.3584 64.0564V36.9791C46.4318 36.6 45.5905 36.0392 44.8841 35.3299C42.6482 33.0955 42.1099 29.8143 43.2568 27.0674L32.0748 15.8854L2.54977 45.4088C1.35861 46.6003 0.689453 48.2162 0.689453 49.901C0.689453 51.5858 1.35861 53.2016 2.54977 54.3932L45.6099 97.451C48.0896 99.9307 52.1099 99.9307 54.5935 97.451L97.4513 54.5932C98.6422 53.4013 99.3111 51.7853 99.311 50.1004C99.3108 48.4155 98.6417 46.7997 97.4505 45.608Z" fill="#225E84"/>
</g>
<defs>
<clipPath id="clip0_977_1037">
<rect width="100" height="100" fill="white"/>
</clipPath>
</defs>
</svg>
