<svg width="100" height="96" viewBox="0 0 100 96" fill="none" xmlns="http://www.w3.org/2000/svg">
<g clip-path="url(#clip0_977_1023)">
<path d="M100 13.7143C100 6.15 93.5937 0 85.7143 0H14.2857C6.40625 0 0 6.15 0 13.7143V82.2857C0 89.85 6.40625 96 14.2857 96H85.7143C93.5937 96 100 89.85 100 82.2857V13.7143ZM40.3795 88.4786C32.8571 88.4786 28.5045 84.75 26.2723 80.2286L33.9286 75.7929C35.4018 78.3 36.7411 80.4214 39.9777 80.4214C43.058 80.4214 45.0223 79.2643 45.0223 74.7429V44.0786H54.4196V74.8714C54.4196 84.2143 48.7054 88.4786 40.3795 88.4786ZM59.5313 79.2643L67.1875 75.0214C69.1964 78.1714 71.8304 80.5071 76.4509 80.5071C80.3348 80.5071 82.8348 78.6429 82.8348 76.05C82.8348 72.9643 80.2902 71.8714 75.9821 70.05L73.6384 69.0857C66.8527 66.3214 62.3661 62.8286 62.3661 55.4786C62.3661 48.7071 67.7455 43.5643 76.1161 43.5643C82.0982 43.5643 86.3839 45.5571 89.4643 50.7857L82.1429 55.2857C80.5357 52.5214 78.7946 51.4286 76.0937 51.4286C73.3482 51.4286 71.6071 53.1 71.6071 55.2857C71.6071 57.9857 73.3482 59.0786 77.3884 60.7714L79.7321 61.7357C87.7232 65.0143 92.2098 68.3786 92.2098 75.9214C92.2098 84.0214 85.558 88.4786 76.6518 88.4786C67.9241 88.4786 62.2768 84.4929 59.5313 79.2643Z" fill="#225E84"/>
</g>
<defs>
<clipPath id="clip0_977_1023">
<rect width="100" height="96" fill="white"/>
</clipPath>
</defs>
</svg>
