<svg width="114" height="100" viewBox="0 0 114 100" fill="none" xmlns="http://www.w3.org/2000/svg">
<g clip-path="url(#clip0_977_1028)">
<path d="M93.7307 32.3789C92.5175 31.969 91.2939 31.5892 90.0613 31.2398C90.2684 30.4065 90.459 29.5833 90.6282 28.7745C93.4061 15.4933 91.5901 4.79378 85.3873 1.27098C79.4402 -2.10622 69.7141 1.41527 59.8914 9.83501C58.9233 10.6663 57.9767 11.5215 57.0525 12.3999C56.4338 11.8158 55.8042 11.2431 55.164 10.6819C44.8692 1.67931 34.5505 -2.11499 28.3544 1.41791C22.4126 4.80563 20.6531 14.864 23.154 27.4508C23.4028 28.6974 23.6838 29.9376 23.9966 31.1701C22.5359 31.5789 21.1265 32.014 19.7777 32.4771C7.70791 36.6219 0 43.117 0 49.8543C0 56.8126 8.2748 63.792 20.846 68.0241C21.8652 68.3657 22.8928 68.6823 23.928 68.9736C23.5919 70.3011 23.2934 71.6376 23.0329 72.9815C20.6487 85.3499 22.5105 95.1705 28.4363 98.5368C34.5567 102.013 44.8292 98.4403 54.8313 89.8284C55.6423 89.1283 56.4355 88.4083 57.2102 87.6692C58.211 88.6204 59.2386 89.5438 60.2917 90.4385C69.9809 98.6499 79.5497 101.966 85.4697 98.5903C91.5843 95.1039 93.5717 84.5539 90.9916 71.7184C90.7883 70.7128 90.5604 69.7122 90.308 68.7175C91.0294 68.5069 91.7375 68.2903 92.4277 68.0648C105.497 63.8004 114 56.9056 114 49.8543C114 43.0925 106.043 36.5534 93.7307 32.3789ZM90.8963 63.5122C90.2723 63.7151 89.634 63.9118 88.9815 64.1021C87.5386 59.6034 85.5917 54.8201 83.2089 49.8776C85.4826 45.053 87.3547 40.3306 88.757 35.8613C89.9233 36.1938 91.0548 36.5442 92.1458 36.914C102.695 40.4912 109.13 45.7793 109.13 49.8543C109.13 54.1947 102.181 59.8293 90.8963 63.5122ZM86.2143 72.6499C87.3552 78.3254 87.5177 83.4569 86.762 87.4688C86.0834 91.0736 84.718 93.4767 83.0294 94.4394C79.4371 96.4877 71.7541 93.8254 63.4682 86.8026C62.4887 85.9707 61.5328 85.1121 60.6017 84.228C63.8142 80.7679 67.0244 76.7455 70.1576 72.278C75.6688 71.7964 80.8754 71.0087 85.5971 69.9337C85.8301 70.8583 86.0359 71.7637 86.2143 72.6499ZM38.8651 94.0855C35.3551 95.3061 32.5595 95.3412 30.8695 94.3815C27.2736 92.339 25.7787 84.4534 27.8178 73.8762C28.0602 72.6264 28.3377 71.3833 28.6501 70.1486C33.3196 71.1662 38.4884 71.8977 44.0125 72.339C47.1671 76.7105 50.4699 80.7284 53.7986 84.2469C53.0912 84.921 52.3671 85.5779 51.6269 86.217C47.2036 90.0249 42.7714 92.7267 38.8651 94.0855ZM22.4215 63.4855C16.8626 61.614 12.2719 59.1819 9.12534 56.528C6.29761 54.1434 4.87038 51.7754 4.87038 49.8543C4.87038 45.7657 11.0589 40.5508 21.3808 37.0065C22.6335 36.5767 23.9445 36.171 25.3049 35.7903C26.7317 40.3605 28.6029 45.139 30.861 49.971C28.5735 54.8745 26.6756 59.7293 25.235 64.3534C24.2901 64.0868 23.352 63.7974 22.4215 63.4855ZM27.9336 26.5293C25.7912 15.7455 27.2139 7.61089 30.7947 5.56922C34.6084 3.39466 43.0417 6.4951 51.9306 14.2688C52.5102 14.7768 53.0805 15.2952 53.641 15.8236C50.3288 19.3267 47.0562 23.3148 43.9296 27.6605C38.5681 28.1499 33.4358 28.9359 28.7173 29.989C28.4265 28.8426 28.1652 27.6887 27.9336 26.5293ZM77.1081 38.4894C75.9936 36.5933 74.8377 34.7211 73.6413 32.874C77.2786 33.3271 80.7637 33.9284 84.0363 34.6635C83.0539 37.7653 81.8293 41.0078 80.3878 44.3324C79.3342 42.3634 78.2407 40.4154 77.1081 38.4894ZM57.0548 19.2521C59.3009 21.649 61.5507 24.3249 63.7634 27.2284C59.2747 27.0196 54.7784 27.0187 50.2896 27.2258C52.5046 24.349 54.7734 21.6767 57.0548 19.2521ZM36.8728 38.5219C35.7543 40.4323 34.6812 42.3682 33.6545 44.328C32.2366 41.0153 31.0231 37.7578 30.0323 34.6122C33.2849 33.8955 36.7534 33.3096 40.3676 32.8648C39.1579 34.7232 37.9927 36.6097 36.8728 38.5219ZM40.4713 67.1846C36.7374 66.7741 33.2168 66.2184 29.9651 65.521C30.9715 62.3192 32.2117 58.9925 33.6603 55.6087C34.6911 57.5699 35.7686 59.507 36.8919 61.4183C38.0471 63.3833 39.2432 65.3078 40.4713 67.1846ZM57.1893 80.7942C54.8808 78.3416 52.5785 75.628 50.3301 72.7096C52.513 72.7938 54.7383 72.8368 57 72.8368C59.3236 72.8368 61.6206 72.7855 63.8814 72.6863C61.6615 75.6574 59.4203 78.3749 57.1893 80.7942ZM80.4337 55.4359C81.9575 58.8569 83.2418 62.1662 84.2616 65.3131C80.9565 66.0561 77.3877 66.6543 73.6275 67.0986C74.8325 65.2173 75.9993 63.3125 77.1272 61.3855C78.2741 59.4267 79.3765 57.443 80.4337 55.4359ZM72.9088 58.989C71.1818 61.9434 69.3579 64.8419 67.4399 67.6798C63.9654 67.9223 60.4832 68.0427 57 68.0407C53.4522 68.0407 50.0015 67.9319 46.6785 67.7197C44.7103 64.8885 42.8516 61.985 41.1064 59.0153C39.3691 56.0615 37.747 53.0436 36.2426 49.9683C37.7432 46.8924 39.3609 43.8731 41.0921 40.917L41.0917 40.9175C42.822 37.9605 44.6659 35.0694 46.6193 32.2504C50.0095 31.9977 53.486 31.8662 56.9996 31.8662C60.5291 31.8662 64.0106 31.999 67.3998 32.2534C69.3335 35.0682 71.1656 37.9494 72.8928 40.8916C74.6295 43.8413 76.2685 46.8458 77.8072 49.9004C76.2843 52.9861 74.6505 56.0176 72.9088 58.989ZM82.955 5.4258C86.7723 7.59422 88.2569 16.3385 85.8585 27.8056C85.7047 28.5378 85.534 29.2819 85.3464 30.0381C80.6163 28.9626 75.4805 28.1631 70.1033 27.6662C66.971 23.2727 63.7251 19.2784 60.4668 15.8205C61.3207 15.0098 62.195 14.2201 63.0888 13.4521C71.5052 6.23852 79.3712 3.39027 82.955 5.4258ZM57 39.828C62.6221 39.828 67.1798 44.317 67.1798 49.8543C67.1798 55.3916 62.6221 59.8806 57 59.8806C51.3779 59.8806 46.8202 55.3916 46.8202 49.8543C46.8202 44.317 51.3779 39.828 57 39.828Z" fill="#225E84"/>
</g>
<defs>
<clipPath id="clip0_977_1028">
<rect width="114" height="100" fill="white"/>
</clipPath>
</defs>
</svg>
