<svg width="100" height="100" viewBox="0 0 100 100" fill="none" xmlns="http://www.w3.org/2000/svg">
<path d="M0 25.2598V74.7441H50.5375L100 25.2598H0ZM13.6094 34.4723H13.625C17.2219 34.4723 21.6 35.4848 24.7719 37.1098L21.3563 43.0691C17.8719 41.3785 16.1312 41.2316 14.1469 41.116C11.2 40.9535 9.71875 42.0129 9.68437 43.1504C9.66875 44.5379 12.4844 45.7879 15.1375 46.6504C19.1406 47.9223 24.25 49.6285 25.0344 54.5629L32.375 35.1629H40.9L49.4969 58.3879L49.4625 35.1629H59.3406C68.75 35.1629 73.175 38.3504 73.175 45.6598C73.175 52.2191 68.6375 56.1441 60.9375 56.1441H57.7625L57.7156 64.866L42.775 64.8504L41.7344 61.0598C40.0795 61.602 38.3476 61.8722 36.6062 61.8598C34.8158 61.8702 33.0354 61.5906 31.3344 61.0316L29.85 64.8535L21.5156 64.8691L21.8906 62.9473C21.7695 63.056 21.6444 63.1602 21.5156 63.2598C19.3031 65.0473 16.4875 65.8816 13.0375 65.9441H12.1406C8.37437 65.9887 4.66517 65.0217 1.4 63.1441L4.44063 57.1066C7.72813 59.0598 9.8 59.4816 12.5813 59.4348C14.0281 59.4004 15.0687 59.1379 15.7531 58.4379C16.1596 58.0241 16.3931 57.4709 16.4062 56.891C16.4344 55.3285 14.1906 54.6004 11.4719 53.7504C9.25937 53.066 6.73437 52.1254 4.78125 50.6754C2.45625 48.9848 1.33125 46.8348 1.39687 43.8098C1.41101 41.6667 2.25695 39.6129 3.75625 38.0816C5.92188 35.8348 9.40625 34.4816 13.6063 34.4816L13.6094 34.4723ZM57.7469 41.4223V49.3691H59.9312C62.8094 49.3691 65.1219 48.4066 65.1219 45.3473C65.1219 42.3848 62.8094 41.4223 59.9312 41.4223H57.7469ZM36.5531 44.6285L33.4437 54.4566C34.4479 54.8318 35.5125 55.0193 36.5844 55.0098C37.7094 55.0098 38.7688 54.8129 39.675 54.4879L36.6156 44.6098L36.5531 44.6285Z" fill="#225E84"/>
</svg>
