<svg width="100" height="100" viewBox="0 0 100 100" fill="none" xmlns="http://www.w3.org/2000/svg">
<g clip-path="url(#clip0_977_1045)">
<path d="M50 0C77.6125 0 100 22.3875 100 50C100 77.6125 77.6125 100 50 100C22.3875 100 0 77.6125 0 50C0 22.3875 22.3875 0 50 0ZM40.0625 66.6583C40.7917 69.3458 40.7125 71.8583 39.9625 74.125L39.6917 74.875C39.5889 75.1305 39.4806 75.375 39.3667 75.6083C38.7833 76.8167 38.0125 77.9417 37.0542 78.9833C34.1458 82.1458 30.0875 83.3458 28.3458 82.3375C26.4708 81.2458 27.4042 76.775 30.7792 73.2125C34.4083 69.3875 39.6125 66.925 39.6125 66.925V66.9125L40.0625 66.6583ZM81.3583 21.4042C79.1 12.5167 64.3708 9.59583 50.4333 14.55C42.1458 17.4958 33.1667 22.125 26.7125 28.1625C19.0333 35.3333 17.8125 41.5833 18.3167 44.1958C20.0958 53.4083 32.7208 59.4333 37.9125 63.9042V63.9292C36.3833 64.6792 25.1792 70.3 22.5542 76.1167C19.7417 82.2417 22.9917 86.6208 25.1167 87.1792C31.6792 88.9958 38.4292 85.6792 42.0542 80.3083C45.5542 75.0542 45.2458 68.3042 43.7375 64.9917C45.8042 64.4292 48.2375 64.1792 51.3625 64.5583C60.1167 65.5583 61.8667 71.0583 61.4875 73.3083C61.1125 75.5542 59.3083 76.8667 58.6792 77.2417C58.0542 77.6208 57.8667 77.7417 57.925 77.9958C57.9875 78.3708 58.3042 78.3708 58.8 78.3083C59.4875 78.1833 63.3667 76.4333 63.5542 72.1792C63.7417 66.8042 58.6125 60.8083 49.4917 60.9292C45.7417 60.9958 43.3625 61.3083 41.6792 61.9958C41.5619 61.824 41.4135 61.6756 41.2417 61.5583C35.6167 55.4958 25.1792 51.2458 25.6167 43.1833C25.7417 40.2458 26.8042 32.5 45.6167 23.125C61.0542 15.4333 73.3708 17.5625 75.4958 22.25C78.55 28.9333 68.9292 41.375 52.8667 43.1833C46.7417 43.8708 43.5542 41.5 42.7375 40.6208C41.8667 39.6833 41.7417 39.6208 41.4292 39.8125C40.9292 40.0625 41.2417 40.875 41.4292 41.375C41.9292 42.625 43.8667 44.8125 47.2458 45.9375C50.1792 46.875 57.3708 47.4333 65.9958 44.0625C75.6792 40.3167 83.2417 29.875 81.0542 21.125L81.3583 21.4042Z" fill="#225E84"/>
</g>
<defs>
<clipPath id="clip0_977_1045">
<rect width="100" height="100" fill="white"/>
</clipPath>
</defs>
</svg>
