<svg width="100" height="61" viewBox="0 0 100 61" fill="none" xmlns="http://www.w3.org/2000/svg">
<path d="M50 0C36.6667 0 28.3333 6.66667 25 20C30 13.3333 35.8333 10.8333 42.5 12.5C46.3035 13.4508 49.0223 16.2105 52.0316 19.2648C56.934 24.241 62.6074 30 75 30C88.3333 30 96.6667 23.3333 100 10C95 16.6667 89.1667 19.1667 82.5 17.5C78.6965 16.5492 75.9777 13.7895 72.9684 10.7352C68.066 5.75898 62.3926 0 50 0ZM25 30C11.6667 30 3.33333 36.6667 0 50C5 43.3333 10.8333 40.8333 17.5 42.5C21.3035 43.4508 24.0223 46.2105 27.0316 49.2648C31.934 54.241 37.6074 60 50 60C63.3333 60 71.6667 53.3333 75 40C70 46.6667 64.1667 49.1667 57.5 47.5C53.6965 46.5492 50.9777 43.7895 47.9684 40.7352C43.066 35.759 37.3926 30 25 30Z" fill="#225E84"/>
</svg>
