<svg width="100" height="100" viewBox="0 0 100 100" fill="none" xmlns="http://www.w3.org/2000/svg">
<g clip-path="url(#clip0_977_1005)">
<mask id="mask0_977_1005" style="mask-type:alpha" maskUnits="userSpaceOnUse" x="-1" y="0" width="101" height="100">
<path fill-rule="evenodd" clip-rule="evenodd" d="M70.9115 99.3177C71.7073 99.6278 72.5584 99.771 73.4118 99.7382C74.2652 99.7054 75.1028 99.4974 75.8724 99.127L96.4607 89.22C97.521 88.7096 98.4156 87.9102 99.0417 86.9139C99.6678 85.9176 99.9999 84.7647 99.9998 83.588V16.4138C100 15.2369 99.668 14.0839 99.0419 13.0874C98.4158 12.0909 97.5211 11.2914 96.4607 10.7809L75.8724 0.875477C74.7091 0.315716 73.4005 0.131417 72.1278 0.348085C70.855 0.564753 69.6812 1.17168 68.7685 2.08485L29.3545 38.0427L12.1873 25.0106C11.4128 24.4229 10.457 24.1248 9.48568 24.1679C8.51438 24.211 7.58877 24.5926 6.86932 25.2466L1.36307 30.2552C0.93397 30.6454 0.591052 31.121 0.356256 31.6514C0.121459 32.1818 -4.58684e-05 32.7553 -0.000487075 33.3354C-0.000928282 33.9154 0.119704 34.4892 0.353694 35.0199C0.587683 35.5507 0.929877 36.0267 1.35839 36.4177L16.2467 50.0005L1.35917 63.5841C0.930892 63.9751 0.588902 64.4511 0.355058 64.9818C0.121215 65.5124 0.000660363 66.0861 0.00110152 66.666C0.00154269 67.2459 0.122969 67.8193 0.357621 68.3496C0.592272 68.8799 0.934985 69.3555 1.36385 69.7458L6.8701 74.7544C7.58945 75.4085 8.51501 75.7902 9.48632 75.8335C10.4576 75.8767 11.4135 75.5787 12.1881 74.9911L29.3553 61.9599L68.7693 97.9169C69.3793 98.5267 70.1082 99.0036 70.9115 99.3177ZM75.0146 27.2997L45.1092 50.0005L75.0154 72.702L75.0146 27.2997Z" fill="white"/>
</mask>
<g mask="url(#mask0_977_1005)">
<path d="M96.4615 10.7974L75.8568 0.875517C74.693 0.315038 73.3838 0.130348 72.1104 0.347032C70.8371 0.563716 69.6626 1.17105 68.7497 2.08489L1.29817 63.5841C0.869572 63.9749 0.527294 64.4509 0.293243 64.9816C0.0591918 65.5123 -0.0614752 66.086 -0.061034 66.666C-0.0605927 67.246 0.060947 67.8196 0.295805 68.3499C0.530663 68.8802 0.873665 69.3557 1.30286 69.7458L6.81223 74.7544C7.53179 75.4093 8.45797 75.7916 9.42998 75.8348C10.402 75.8781 11.3584 75.5796 12.1333 74.9911L93.3607 13.37C96.0857 11.3029 99.9997 13.2466 99.9997 16.6669V16.4279C99.9998 15.2514 99.6677 14.0987 99.0418 13.1025C98.4159 12.1064 97.5215 11.3078 96.4615 10.7974Z" fill="#225E84"/>
<g filter="url(#filter0_d_977_1005)">
<path d="M96.4615 89.2044L75.8568 99.1247C74.6932 99.6854 73.384 99.8704 72.1107 99.654C70.8373 99.4376 69.6628 98.8305 68.7497 97.9169L1.29817 36.4169C0.869572 36.0261 0.527294 35.5502 0.293243 35.0195C0.0591918 34.4888 -0.0614752 33.9151 -0.061034 33.335C-0.0605927 32.755 0.060947 32.1815 0.295805 31.6512C0.530663 31.1208 0.873665 30.6454 1.30286 30.2552L6.81223 25.2466C7.53179 24.5917 8.45797 24.2095 9.42998 24.1662C10.402 24.123 11.3584 24.4215 12.1333 25.0099L93.3607 86.6302C96.0857 88.6982 99.9997 86.7544 99.9997 83.3341V83.5732C99.9998 84.7497 99.6677 85.9023 99.0418 86.8985C98.4159 87.8947 97.5215 88.694 96.4615 89.2044Z" fill="#225E84"/>
</g>
<g filter="url(#filter1_d_977_1005)">
<path d="M75.8578 99.127C74.6937 99.6864 73.3845 99.8704 72.1112 99.6537C70.838 99.4369 69.6634 98.83 68.75 97.9169C71.0562 100.223 75 98.5895 75 95.3278V4.67232C75 1.41061 71.0562 -0.222989 68.75 2.08404C69.6634 1.17091 70.838 0.564019 72.1112 0.347236C73.3845 0.130453 74.6937 0.31448 75.8578 0.873886L96.4586 10.7817C97.5194 11.2918 98.4146 12.0912 99.0411 13.0877C99.6677 14.0842 100 15.2374 100 16.4145V83.5879C100 84.7651 99.6677 85.9183 99.0411 86.9148C98.4146 87.9113 97.5194 88.7106 96.4586 89.2208L75.8578 99.127Z" fill="#225E84"/>
</g>
<path opacity="0.25" fill-rule="evenodd" clip-rule="evenodd" d="M70.8514 99.3177C71.647 99.6277 72.498 99.7708 73.3513 99.738C74.2046 99.7052 75.042 99.4972 75.8115 99.127L96.3998 89.22C97.4602 88.7095 98.3549 87.9101 98.981 86.9136C99.6071 85.9171 99.9391 84.764 99.9389 83.5872V16.4138C99.9391 15.2369 99.6071 14.0839 98.981 13.0874C98.3549 12.0909 97.4602 11.2914 96.3998 10.7809L75.8115 0.875477C74.6482 0.315716 73.3396 0.131417 72.0668 0.348085C70.7941 0.564753 69.6202 1.17168 68.7076 2.08485L29.2936 38.0427L12.1264 25.0114C11.3518 24.4237 10.3961 24.1256 9.42476 24.1687C8.45345 24.2117 7.52784 24.5934 6.8084 25.2474L1.30215 30.2559C0.873151 30.6463 0.53033 31.1219 0.295602 31.6522C0.0608748 32.1826 -0.0605928 32.7562 -0.061034 33.3362C-0.0614751 33.9162 0.0591198 34.4899 0.29304 35.0206C0.52696 35.5514 0.869058 36.0274 1.29746 36.4184L16.1857 50.0005L1.29824 63.5833C0.869732 63.9742 0.527538 64.4503 0.293549 64.981C0.0595598 65.5118 -0.0610727 66.0855 -0.0606315 66.6656C-0.0601903 67.2456 0.0613149 67.8192 0.296111 68.3496C0.530908 68.88 0.873826 69.3555 1.30293 69.7458L6.80918 74.7544C7.52853 75.4085 8.45409 75.7902 9.4254 75.8335C10.3967 75.8767 11.3525 75.5787 12.1271 74.9911L29.2951 61.9591L68.7092 97.9169C69.319 98.5266 70.0483 99.0035 70.8514 99.3177ZM74.9545 27.2989L45.0482 50.0005L74.9545 72.7013V27.2989Z" fill="#225E84"/>
</g>
</g>
<defs>
<filter id="filter0_d_977_1005" x="-8.39503" y="15.8281" width="116.729" height="92.2481" filterUnits="userSpaceOnUse" color-interpolation-filters="sRGB">
<feFlood flood-opacity="0" result="BackgroundImageFix"/>
<feColorMatrix in="SourceAlpha" type="matrix" values="0 0 0 0 0 0 0 0 0 0 0 0 0 0 0 0 0 0 127 0" result="hardAlpha"/>
<feOffset/>
<feGaussianBlur stdDeviation="4.167"/>
<feColorMatrix type="matrix" values="0 0 0 0 0 0 0 0 0 0 0 0 0 0 0 0 0 0 0.25 0"/>
<feBlend mode="overlay" in2="BackgroundImageFix" result="effect1_dropShadow_977_1005"/>
<feBlend mode="normal" in="SourceGraphic" in2="effect1_dropShadow_977_1005" result="shape"/>
</filter>
<filter id="filter1_d_977_1005" x="60.416" y="-8.07521" width="47.918" height="116.151" filterUnits="userSpaceOnUse" color-interpolation-filters="sRGB">
<feFlood flood-opacity="0" result="BackgroundImageFix"/>
<feColorMatrix in="SourceAlpha" type="matrix" values="0 0 0 0 0 0 0 0 0 0 0 0 0 0 0 0 0 0 127 0" result="hardAlpha"/>
<feOffset/>
<feGaussianBlur stdDeviation="4.167"/>
<feColorMatrix type="matrix" values="0 0 0 0 0 0 0 0 0 0 0 0 0 0 0 0 0 0 0.25 0"/>
<feBlend mode="overlay" in2="BackgroundImageFix" result="effect1_dropShadow_977_1005"/>
<feBlend mode="normal" in="SourceGraphic" in2="effect1_dropShadow_977_1005" result="shape"/>
</filter>
<clipPath id="clip0_977_1005">
<rect width="100" height="100" fill="white"/>
</clipPath>
</defs>
</svg>
